<?xml version="1.0" encoding="UTF-8"?>
<svg version="1.1" xmlns="http://www.w3.org/2000/svg" width="80" height="80">
<path d="M0 0 C7.27363642 5.18041951 13.38523045 11.95089541 15 21 C15.80514858 32.95843622 15.20180936 42.20675407 7.3125 51.8125 C0.84781999 58.63968543 -6.17674344 62.0363516 -15.53295898 62.29296875 C-26.87993194 62.39890385 -34.5696962 60.22382749 -43.01953125 52.22265625 C-50.84579928 43.43932981 -51.70102447 34.23967387 -51.17041016 22.93994141 C-50.41145414 14.30002093 -45.30627922 7.61912753 -39 2 C-27.90432514 -5.63397006 -11.777235 -7.28383001 0 0 Z M-43 11 C-48.7295408 18.71457855 -48.53383519 26.70498721 -48 36 C-46.85711886 43.53548008 -41.45753229 49.01856908 -36 54 C-28.05286217 59.22946376 -20.28056274 59.70921331 -11 59 C-2.87526781 57.00487346 3.34816096 51.41947666 8.375 44.9375 C12.7324804 37.06051621 13.5177307 28.11636386 11.34765625 19.37109375 C7.86786651 10.7836298 1.32899772 4.00135354 -7 0 C-21.54112013 -4.9095825 -33.20116722 0.57681681 -43 11 Z " fill="#FAAF04" transform="translate(58,11)"/>
<path d="M0 0 C5.48712638 2.19485055 10.25847709 4.971158 15.3125 8 C16.24384766 8.5465625 17.17519531 9.093125 18.13476562 9.65625 C19.01455078 10.1821875 19.89433594 10.708125 20.80078125 11.25 C21.60684814 11.72953125 22.41291504 12.2090625 23.2434082 12.703125 C23.8230835 13.13109375 24.40275879 13.5590625 25 14 C25 14.66 25 15.32 25 16 C22.92041016 17.51220703 22.92041016 17.51220703 20.0390625 19.2578125 C19.01039062 19.88300781 17.98171875 20.50820313 16.921875 21.15234375 C15.83390625 21.80332031 14.7459375 22.45429687 13.625 23.125 C12.54476562 23.78371094 11.46453125 24.44242188 10.3515625 25.12109375 C2.27055836 30 2.27055836 30 0 30 C0 20.1 0 10.2 0 0 Z M2 5 C2 11.6 2 18.2 2 25 C6.08078416 23.36768634 9.17484317 21.7416683 12.8125 19.375 C14.27623047 18.42753906 14.27623047 18.42753906 15.76953125 17.4609375 C16.50558594 16.97882812 17.24164063 16.49671875 18 16 C16.6551963 11.96558889 14.04690097 10.87332753 10.5625 8.8125 C9.96373047 8.44447266 9.36496094 8.07644531 8.74804688 7.69726562 C5.59804774 5.6559277 5.59804774 5.6559277 2 5 Z " fill="#FAB104" transform="translate(32,25)"/>
<path d="M0 0 C0.99 0 1.98 0 3 0 C3 0.99 3 1.98 3 3 C2.01 3 1.02 3 0 3 C0 2.01 0 1.02 0 0 Z " fill="#FAB303" transform="translate(44,65)"/>
<path d="M0 0 C0.99 0 1.98 0 3 0 C3 0.99 3 1.98 3 3 C2.01 3 1.02 3 0 3 C0 2.01 0 1.02 0 0 Z " fill="#FAB303" transform="translate(33,65)"/>
<path d="M0 0 C0.99 0 1.98 0 3 0 C3 0.99 3 1.98 3 3 C2.01 3 1.02 3 0 3 C0 2.01 0 1.02 0 0 Z " fill="#FAAC03" transform="translate(65,44)"/>
<path d="M0 0 C0.99 0 1.98 0 3 0 C3 0.99 3 1.98 3 3 C2.01 3 1.02 3 0 3 C0 2.01 0 1.02 0 0 Z " fill="#FAA903" transform="translate(12,44)"/>
<path d="M0 0 C0.99 0 1.98 0 3 0 C3 0.99 3 1.98 3 3 C2.01 3 1.02 3 0 3 C0 2.01 0 1.02 0 0 Z " fill="#FAAC03" transform="translate(65,33)"/>
<path d="M0 0 C0.99 0 1.98 0 3 0 C3 0.99 3 1.98 3 3 C2.01 3 1.02 3 0 3 C0 2.01 0 1.02 0 0 Z " fill="#FAAC03" transform="translate(12,33)"/>
<path d="M0 0 C0.99 0 1.98 0 3 0 C3 0.99 3 1.98 3 3 C2.01 3 1.02 3 0 3 C0 2.01 0 1.02 0 0 Z " fill="#FAA903" transform="translate(44,12)"/>
<path d="M0 0 C0.99 0 1.98 0 3 0 C3 0.99 3 1.98 3 3 C2.01 3 1.02 3 0 3 C0 2.01 0 1.02 0 0 Z " fill="#FAAD03" transform="translate(33,12)"/>
<path d="M0 0 C0.99 0 1.98 0 3 0 C2.67 0.99 2.34 1.98 2 3 C1.34 3 0.68 3 0 3 C0 2.01 0 1.02 0 0 Z " fill="#FCAE02" transform="translate(58,58)"/>
<path d="M0 0 C0.99 0 1.98 0 3 0 C3 0.99 3 1.98 3 3 C2.01 2.67 1.02 2.34 0 2 C0 1.34 0 0.68 0 0 Z " fill="#FCB002" transform="translate(19,58)"/>
<path d="M0 0 C0.99 0.33 1.98 0.66 3 1 C3 1.66 3 2.32 3 3 C2.01 3 1.02 3 0 3 C0 2.01 0 1.02 0 0 Z " fill="#FCB302" transform="translate(58,19)"/>
<path d="M0 0 C0.66 0 1.32 0 2 0 C2 0.99 2 1.98 2 3 C1.01 3 0.02 3 -1 3 C-0.67 2.01 -0.34 1.02 0 0 Z " fill="#FCBA02" transform="translate(20,19)"/>
<path d="M0 0 C0.66 0.33 1.32 0.66 2 1 C2 1.66 2 2.32 2 3 C1.01 3 0.02 3 -1 3 C-0.67 2.01 -0.34 1.02 0 0 Z " fill="#FAB104" transform="translate(50,63)"/>
<path d="M0 0 C0.66 0.33 1.32 0.66 2 1 C2 1.66 2 2.32 2 3 C1.01 3 0.02 3 -1 3 C-0.67 2.01 -0.34 1.02 0 0 Z " fill="#FAB204" transform="translate(29,63)"/>
<path d="M0 0 C0.66 0 1.32 0 2 0 C2 0.99 2 1.98 2 3 C1.01 2.67 0.02 2.34 -1 2 C-0.67 1.34 -0.34 0.68 0 0 Z " fill="#FAB104" transform="translate(64,49)"/>
<path d="M0 0 C0.99 0.33 1.98 0.66 3 1 C2.67 1.66 2.34 2.32 2 3 C1.34 3 0.68 3 0 3 C0 2.01 0 1.02 0 0 Z " fill="#FAB104" transform="translate(14,49)"/>
<path d="M0 0 C0.66 0 1.32 0 2 0 C2 0.99 2 1.98 2 3 C1.01 2.67 0.02 2.34 -1 2 C-0.67 1.34 -0.34 0.68 0 0 Z " fill="#FAB104" transform="translate(64,28)"/>
<path d="M0 0 C0.99 0.33 1.98 0.66 3 1 C2.67 1.66 2.34 2.32 2 3 C1.34 3 0.68 3 0 3 C0 2.01 0 1.02 0 0 Z " fill="#FAB204" transform="translate(14,28)"/>
<path d="M0 0 C0.99 0 1.98 0 3 0 C2.67 0.99 2.34 1.98 2 3 C1.34 2.67 0.68 2.34 0 2 C0 1.34 0 0.68 0 0 Z " fill="#F9B204" transform="translate(49,14)"/>
<path d="M0 0 C0.99 0 1.98 0 3 0 C2.67 0.99 2.34 1.98 2 3 C1.34 2.67 0.68 2.34 0 2 C0 1.34 0 0.68 0 0 Z " fill="#FAB204" transform="translate(28,14)"/>
<path d="M0 0 C0.66 0 1.32 0 2 0 C2 0.99 2 1.98 2 3 C1.34 3 0.68 3 0 3 C0 2.01 0 1.02 0 0 Z " fill="#F9AF04" transform="translate(54,61)"/>
<path d="M0 0 C0.66 0 1.32 0 2 0 C2 0.99 2 1.98 2 3 C1.34 3 0.68 3 0 3 C0 2.01 0 1.02 0 0 Z " fill="#F9B005" transform="translate(24,61)"/>
<path d="M0 0 C0.99 0 1.98 0 3 0 C3 0.66 3 1.32 3 2 C2.01 2 1.02 2 0 2 C0 1.34 0 0.68 0 0 Z " fill="#F9AE04" transform="translate(61,54)"/>
<path d="M0 0 C0.99 0 1.98 0 3 0 C3 0.66 3 1.32 3 2 C2.01 2 1.02 2 0 2 C0 1.34 0 0.68 0 0 Z " fill="#F9AE04" transform="translate(16,54)"/>
<path d="M0 0 C0.99 0 1.98 0 3 0 C3 0.66 3 1.32 3 2 C2.01 2 1.02 2 0 2 C0 1.34 0 0.68 0 0 Z " fill="#F9AE04" transform="translate(61,24)"/>
<path d="M0 0 C0.99 0 1.98 0 3 0 C3 0.66 3 1.32 3 2 C2.01 2 1.02 2 0 2 C0 1.34 0 0.68 0 0 Z " fill="#F9AF04" transform="translate(16,24)"/>
<path d="M0 0 C0.66 0 1.32 0 2 0 C2 0.99 2 1.98 2 3 C1.34 3 0.68 3 0 3 C0 2.01 0 1.02 0 0 Z " fill="#F9AF04" transform="translate(54,16)"/>
<path d="M0 0 C0.66 0 1.32 0 2 0 C2 0.99 2 1.98 2 3 C1.34 3 0.68 3 0 3 C0 2.01 0 1.02 0 0 Z " fill="#F9AF04" transform="translate(24,16)"/>
<path d="M0 0 C0.66 0 1.32 0 2 0 C2 0.66 2 1.32 2 2 C1.34 2 0.68 2 0 2 C0 1.34 0 0.68 0 0 Z " fill="#F9B005" transform="translate(39,66)"/>
<path d="M0 0 C0.66 0 1.32 0 2 0 C2 0.66 2 1.32 2 2 C1.34 2 0.68 2 0 2 C0 1.34 0 0.68 0 0 Z " fill="#F9B005" transform="translate(66,39)"/>
<path d="M0 0 C0.66 0 1.32 0 2 0 C2 0.66 2 1.32 2 2 C1.34 2 0.68 2 0 2 C0 1.34 0 0.68 0 0 Z " fill="#F9B005" transform="translate(12,39)"/>
<path d="M0 0 C0.66 0 1.32 0 2 0 C2 0.66 2 1.32 2 2 C1.34 2 0.68 2 0 2 C0 1.34 0 0.68 0 0 Z " fill="#F9B005" transform="translate(39,12)"/>
</svg>
