<?xml version="1.0" encoding="UTF-8"?>
<svg version="1.1" xmlns="http://www.w3.org/2000/svg" width="512" height="512">
<path d="M0 0 C6.49925057 5.4344016 11.06695768 13.27338198 12.07421875 21.734375 C12.87611707 31.35715484 10.98444816 40.417687 4.74609375 47.953125 C0.41322488 52.56945259 -3.97825615 56.35536496 -9.92578125 58.734375 C-11.24578125 58.734375 -12.56578125 58.734375 -13.92578125 58.734375 C-13.92578125 61.704375 -13.92578125 64.674375 -13.92578125 67.734375 C-12.63929688 67.69957031 -11.3528125 67.66476563 -10.02734375 67.62890625 C-4.96337612 67.63385346 -0.24603709 68.38618881 4.69921875 69.421875 C5.57094727 69.60266602 6.44267578 69.78345703 7.34082031 69.96972656 C29.85813333 74.8166876 49.43447475 85.0027016 67.07421875 99.734375 C74.232231 93.90808596 80.60013641 87.2960765 87.07421875 80.734375 C86.88085938 80.15429688 86.6875 79.57421875 86.48828125 78.9765625 C85.68359375 76.5625 84.87890625 74.1484375 84.07421875 71.734375 C83.71972656 70.84105469 83.36523438 69.94773437 83 69.02734375 C80.02605001 58.44911657 80.92757284 45.48439968 85.46875 35.5625 C91.66229307 24.65221974 100.62493006 16.3431625 112.69921875 12.3984375 C126.57628183 9.66799685 140.08065092 10.86798239 152.0625 18.68359375 C161.28180274 25.63237809 167.33087173 34.51261805 170.07421875 45.734375 C170.48452089 49.03947549 170.55280725 52.28152756 170.51171875 55.609375 C170.50269531 56.48779053 170.49367188 57.36620605 170.484375 58.27124023 C170.16618129 70.2134478 165.93655042 78.75295233 158.07421875 87.734375 C149.21456453 96.01025356 138.52974558 100.13664818 126.51171875 100.171875 C125.63 100.17501709 124.74828125 100.17815918 123.83984375 100.18139648 C115.22572734 100.02499054 108.79022923 97.48693927 101.0625 93.765625 C98.79068764 93.51962848 98.79068764 93.51962848 96.5234375 95.76171875 C95.58928895 96.71870466 94.66936132 97.68971386 93.76171875 98.671875 C93.04085083 99.42271362 93.04085083 99.42271362 92.30541992 100.1887207 C88.43231056 104.25383146 84.68451156 108.43406036 81.07421875 112.734375 C81.40292969 113.16105469 81.73164063 113.58773437 82.0703125 114.02734375 C83.75963449 116.24772631 85.41932001 118.48819827 87.07421875 120.734375 C87.77417969 121.67925781 88.47414063 122.62414062 89.1953125 123.59765625 C103.84768139 143.98908124 114.52038661 169.30280678 114.07421875 194.734375 C117.04421875 194.734375 120.01421875 194.734375 123.07421875 194.734375 C123.18507813 194.00089844 123.2959375 193.26742187 123.41015625 192.51171875 C125.16389527 185.17696319 130.89101283 178.83982347 137.07421875 174.734375 C146.24084129 169.88694071 154.94124373 168.15542687 165.13671875 170.859375 C175.48524739 174.35220649 181.59033391 180.60754305 186.88671875 189.921875 C190.50010542 198.47989605 190.33706914 208.45547793 187.01171875 217.046875 C182.10585163 227.39007818 175.72235687 232.54185195 165.07421875 236.734375 C155.91621907 238.99645576 146.09573005 238.16040729 137.80859375 233.4453125 C129.65093477 227.62286124 125.30026636 221.16582007 122.07421875 211.734375 C119.43421875 211.734375 116.79421875 211.734375 114.07421875 211.734375 C114.10902344 213.02085937 114.14382813 214.30734375 114.1796875 215.6328125 C114.17474029 220.69678013 113.42240494 225.41411916 112.38671875 230.359375 C112.11553223 231.66696777 112.11553223 231.66696777 111.83886719 233.00097656 C106.99190615 255.51828958 96.80589215 275.094631 82.07421875 292.734375 C87.90050779 299.89238725 94.51251725 306.26029266 101.07421875 312.734375 C101.65429688 312.54101562 102.234375 312.34765625 102.83203125 312.1484375 C105.24609375 311.34375 107.66015625 310.5390625 110.07421875 309.734375 C111.41419922 309.20263672 111.41419922 309.20263672 112.78125 308.66015625 C123.28928883 305.70593893 136.31788702 306.54694184 146.1796875 311.06640625 C157.69388167 317.70144122 165.44011978 326.60633281 169.48095703 339.30761719 C170.48334201 343.40790801 170.56363128 347.40486595 170.51171875 351.609375 C170.50269531 352.48779053 170.49367188 353.36620605 170.484375 354.27124023 C170.16618129 366.2134478 165.93655042 374.75295233 158.07421875 383.734375 C147.39887118 393.7063082 135.33038954 396.42532529 121.140625 396.10546875 C109.98441923 395.52309947 100.88406485 390.57172056 93.07421875 382.734375 C83.05002207 371.12943962 80.76204772 359.06493681 81.77734375 344.11816406 C82.46872551 338.56664146 84.70719897 333.76332194 87.07421875 328.734375 C87.92401249 326.82120277 87.92401249 326.82120277 88.07421875 324.734375 C86.91014003 322.8462131 86.91014003 322.8462131 85.06640625 321.16796875 C84.40898437 320.51763672 83.7515625 319.86730469 83.07421875 319.19726562 C82.37296875 318.52888672 81.67171875 317.86050781 80.94921875 317.171875 C80.27117187 316.49962891 79.593125 315.82738281 78.89453125 315.13476562 C75.50741017 311.82969689 72.31926151 308.92296708 68.07421875 306.734375 C67.65914063 307.13527344 67.2440625 307.53617187 66.81640625 307.94921875 C49.59845551 323.83439925 27.33410797 333.36381676 4.63671875 338.046875 C3.80817383 338.21864258 2.97962891 338.39041016 2.12597656 338.56738281 C-2.98183059 339.55353341 -7.72482083 339.8955988 -12.92578125 339.734375 C-12.92578125 342.704375 -12.92578125 345.674375 -12.92578125 348.734375 C-12.19230469 348.84523438 -11.45882812 348.95609375 -10.703125 349.0703125 C-3.36356864 350.82519939 2.96141368 356.55262836 7.07421875 362.734375 C11.93531534 371.78660935 13.60547729 380.68746769 10.94921875 390.734375 C7.48101208 401.12286382 1.22584489 407.23639151 -8.11328125 412.546875 C-16.15478177 415.94217522 -25.46472656 415.86545324 -33.67578125 413.109375 C-43.39891256 409.09421142 -49.88334134 403.03623078 -53.9609375 393.25 C-57.33023557 383.15777694 -56.46502754 374.16142971 -51.89453125 364.5703125 C-47.84190721 357.47822043 -41.58770733 351.69466462 -33.92578125 348.734375 C-32.60578125 348.734375 -31.28578125 348.734375 -29.92578125 348.734375 C-29.92578125 345.764375 -29.92578125 342.794375 -29.92578125 339.734375 C-31.21484375 339.76789063 -32.50390625 339.80140625 -33.83203125 339.8359375 C-38.84586777 339.83006191 -43.52559682 339.12206682 -48.42578125 338.109375 C-49.29235352 337.93116211 -50.15892578 337.75294922 -51.05175781 337.56933594 C-70.95599339 333.26827443 -88.56897996 324.7379828 -104.92578125 312.734375 C-107.23578125 311.084375 -109.54578125 309.434375 -111.92578125 307.734375 C-118.19578125 314.004375 -124.46578125 320.274375 -130.92578125 326.734375 C-128.94941122 332.75126724 -128.94941122 332.75126724 -126.76171875 338.69140625 C-123.86801359 349.2250339 -124.52401889 363.20542342 -129.92578125 372.734375 C-137.08996651 384.46335087 -146.6095084 392.09139 -159.92578125 395.734375 C-174.12175369 397.31421809 -186.58745825 395.69158793 -198.30078125 387.046875 C-206.52154936 379.92042992 -212.98393522 370.51468659 -214.16503906 359.50390625 C-215.21496165 344.74633514 -213.12848776 332.46118626 -203.15234375 320.953125 C-193.64018626 311.4743435 -183.32492317 307.3865711 -170.05078125 307.171875 C-161.30247121 307.19956468 -154.85306633 309.00316829 -146.92578125 312.734375 C-145.01260902 313.58416874 -145.01260902 313.58416874 -142.92578125 313.734375 C-141.03761935 312.57029628 -141.03761935 312.57029628 -139.359375 310.7265625 C-138.70904297 310.06914062 -138.05871094 309.41171875 -137.38867188 308.734375 C-136.72029297 308.033125 -136.05191406 307.331875 -135.36328125 306.609375 C-134.35491211 305.59230469 -134.35491211 305.59230469 -133.32617188 304.5546875 C-130.02110314 301.16756642 -127.11437333 297.97941776 -124.92578125 293.734375 C-125.32667969 293.31929688 -125.72757812 292.90421875 -126.140625 292.4765625 C-142.0258055 275.25861176 -151.55522301 252.99426422 -156.23828125 230.296875 C-156.41004883 229.46833008 -156.58181641 228.63978516 -156.75878906 227.78613281 C-157.74493966 222.67832566 -158.08700505 217.93533542 -157.92578125 212.734375 C-160.89578125 212.734375 -163.86578125 212.734375 -166.92578125 212.734375 C-167.03664063 213.46785156 -167.1475 214.20132813 -167.26171875 214.95703125 C-169.01660564 222.29658761 -174.74403461 228.62156993 -180.92578125 232.734375 C-189.9780156 237.59547159 -198.87887394 239.26563354 -208.92578125 236.609375 C-218.93464057 233.25757095 -226.10854318 226.98848579 -231.0234375 217.6484375 C-234.28139863 209.49595803 -234.322093 199.56369017 -231.30078125 191.359375 C-226.93610287 182.08253245 -221.00637574 175.6846227 -211.44140625 171.69921875 C-201.95232062 168.53127867 -193.23671651 169.07060462 -183.92578125 172.734375 C-174.47756887 178.11008204 -169.3822002 185.62943254 -165.92578125 195.734375 C-163.28578125 195.734375 -160.64578125 195.734375 -157.92578125 195.734375 C-157.96058594 194.44789063 -157.99539062 193.16140625 -158.03125 191.8359375 C-158.02630279 186.77196987 -157.27396744 182.05463084 -156.23828125 177.109375 C-156.05749023 176.23764648 -155.87669922 175.36591797 -155.69042969 174.46777344 C-150.75562545 151.54237111 -140.03279348 132.2583742 -125.92578125 113.734375 C-128.98877432 110.5267752 -132.07923617 107.34706963 -135.17578125 104.171875 C-136.04847656 103.25728516 -136.92117187 102.34269531 -137.8203125 101.40039062 C-138.66464844 100.53994141 -139.50898438 99.67949219 -140.37890625 98.79296875 C-141.15395508 97.99173584 -141.92900391 97.19050293 -142.72753906 96.36499023 C-144.7606091 94.48060802 -144.7606091 94.48060802 -147.07910156 94.91992188 C-148.39870928 95.50191703 -149.71153143 96.09939701 -151.01953125 96.70703125 C-161.91442926 101.6415711 -175.81570228 101.66132796 -187.05078125 97.734375 C-198.86970241 92.3249457 -207.05731648 83.67300387 -212.36328125 71.859375 C-216.083212 60.47315218 -215.49533094 46.40839113 -210.53125 35.5625 C-204.33770693 24.65221974 -195.37506994 16.3431625 -183.30078125 12.3984375 C-169.42371817 9.66799685 -155.91934908 10.86798239 -143.9375 18.68359375 C-134.71819726 25.63237809 -128.66912827 34.51261805 -125.92578125 45.734375 C-125.51546789 49.03956583 -125.44908804 52.28148618 -125.48828125 55.609375 C-125.49529053 56.91829712 -125.49529053 56.91829712 -125.50244141 58.25366211 C-125.68771718 66.35232236 -127.40742067 72.95683413 -131.92578125 79.734375 C-131.731911 83.80565035 -129.16851088 85.82730123 -126.36328125 88.546875 C-125.46738281 89.41699219 -124.57148438 90.28710938 -123.6484375 91.18359375 C-120.15106207 94.46018795 -116.58882328 97.64432278 -112.92578125 100.734375 C-112.49910156 100.40566406 -112.07242188 100.07695312 -111.6328125 99.73828125 C-109.41242994 98.04895926 -107.17195798 96.38927374 -104.92578125 94.734375 C-103.98089844 94.03441406 -103.03601563 93.33445312 -102.0625 92.61328125 C-81.95696796 78.16634229 -56.07799766 66.98528264 -30.92578125 67.734375 C-30.70278023 63.56991675 -30.70278023 63.56991675 -31.92578125 59.734375 C-34.51682924 57.88362644 -37.19508118 56.60243885 -40.0625 55.22265625 C-47.73455379 51.23486294 -51.84034612 44.74042817 -54.609375 36.765625 C-57.35300229 27.22915499 -56.22660813 18.10980386 -51.671875 9.3125 C-46.93402117 1.61832867 -39.56396067 -4.66484986 -30.609375 -6.82421875 C-19.05898984 -8.72406376 -9.52033921 -6.71242066 0 0 Z M-34.67578125 15.609375 C-38.40084148 20.78306977 -39.42823807 24.16781579 -38.52734375 30.453125 C-37.17544611 35.57980175 -34.39856322 38.7943014 -29.98828125 41.609375 C-24.19148082 43.73881189 -20.5075054 44.1463474 -14.81640625 41.74609375 C-9.86071755 39.09418595 -6.7083855 34.98315419 -4.92578125 29.734375 C-4.41519796 23.89212384 -5.40073609 19.76772618 -9.17578125 15.234375 C-13.29352861 11.09157035 -16.00561609 9.88676906 -21.86328125 9.421875 C-27.47699646 9.60126064 -30.79948325 11.55688164 -34.67578125 15.609375 Z M-190.86328125 37.609375 C-197.14452319 45.60906993 -198.09642408 52.62632439 -196.92578125 62.734375 C-194.32476779 71.621171 -188.46225993 76.92175822 -180.80078125 81.671875 C-173.49479464 84.33011727 -164.51022289 83.91250149 -157.48828125 80.734375 C-151.41535045 77.19849095 -145.81417094 71.62770075 -143.3671875 64.90234375 C-141.66157794 56.52523486 -141.96442065 48.38305366 -146.30859375 40.921875 C-150.38293756 35.41068531 -156.03577374 30.13720536 -162.92578125 28.734375 C-174.27744126 27.50080022 -182.91950268 29.10291211 -190.86328125 37.609375 Z M105.13671875 37.609375 C98.85547681 45.60906993 97.90357592 52.62632439 99.07421875 62.734375 C101.67523221 71.621171 107.53774007 76.92175822 115.19921875 81.671875 C122.50520536 84.33011727 131.48977711 83.91250149 138.51171875 80.734375 C144.58464955 77.19849095 150.18582906 71.62770075 152.6328125 64.90234375 C154.33842206 56.52523486 154.03557935 48.38305366 149.69140625 40.921875 C145.61706244 35.41068531 139.96422626 30.13720536 133.07421875 28.734375 C121.72255874 27.50080022 113.08049732 29.10291211 105.13671875 37.609375 Z M-107.36328125 119.734375 C-112.88050252 125.34572465 -117.89531587 130.94016193 -121.92578125 137.734375 C-122.57675781 138.78753906 -123.22773438 139.84070313 -123.8984375 140.92578125 C-140.13122039 167.75094941 -145.5979305 199.10651741 -139.10546875 229.8515625 C-133.56757134 252.2358369 -122.69299914 270.981706 -106.92578125 287.734375 C-106.28640625 288.46140625 -105.64703125 289.1884375 -104.98828125 289.9375 C-85.33947737 311.27487297 -55.00432249 322.04137704 -26.64453125 323.6171875 C5.653494 324.68280262 36.07745616 312.95738358 59.68359375 290.984375 C60.4725 290.241875 61.26140625 289.499375 62.07421875 288.734375 C62.80125 288.095 63.52828125 287.455625 64.27734375 286.796875 C83.07529712 269.48652945 95.98995773 240.90422729 97.23535156 215.43969727 C97.7018744 177.78967702 89.54853723 147.70467381 63.07421875 119.734375 C62.34203125 118.94933594 61.60984375 118.16429687 60.85546875 117.35546875 C39.40372592 95.0350814 9.23286817 85.51865296 -20.92578125 83.734375 C-53.58304047 83.734375 -84.28487338 96.80296336 -107.36328125 119.734375 Z M-212.86328125 193.796875 C-216.03268211 198.31087017 -216.48013447 202.334564 -215.92578125 207.734375 C-214.19202094 212.64669588 -211.44161668 216.11891283 -206.92578125 218.734375 C-201.19007366 220.93880906 -196.68944089 221.17284639 -190.92578125 218.734375 C-186.70489527 216.04835665 -184.58852813 213.46007665 -182.92578125 208.734375 C-182.00056549 201.90808798 -182.74737724 197.23227502 -186.92578125 191.734375 C-190.86295479 188.25501233 -194.46659494 186.93000065 -199.62109375 186.57421875 C-205.12979213 186.9570266 -209.29644131 189.7088063 -212.86328125 193.796875 Z M141.07421875 194.734375 C138.37179324 199.24789971 138.44237717 203.60856021 139.07421875 208.734375 C140.40964019 212.74822693 142.61777222 215.34017117 145.82421875 218.109375 C151.10677099 220.75065112 155.58995307 221.45783259 161.19921875 219.734375 C165.61693196 217.85227233 168.46641292 214.70473681 171.07421875 210.734375 C172.73448336 205.75358117 172.673253 201.43163871 170.94921875 196.546875 C167.74482306 191.74028147 163.67543431 188.31420503 158.07421875 186.734375 C150.99494269 185.80289131 145.50713803 189.5415267 141.07421875 194.734375 Z M-190.86328125 333.609375 C-197.14452319 341.60906993 -198.09642408 348.62632439 -196.92578125 358.734375 C-194.32476779 367.621171 -188.46225993 372.92175822 -180.80078125 377.671875 C-173.49479464 380.33011727 -164.51022289 379.91250149 -157.48828125 376.734375 C-151.41535045 373.19849095 -145.81417094 367.62770075 -143.3671875 360.90234375 C-141.66157794 352.52523486 -141.96442065 344.38305366 -146.30859375 336.921875 C-150.38293756 331.41068531 -156.03577374 326.13720536 -162.92578125 324.734375 C-174.27744126 323.50080022 -182.91950268 325.10291211 -190.86328125 333.609375 Z M105.13671875 333.609375 C98.85547681 341.60906993 97.90357592 348.62632439 99.07421875 358.734375 C101.67523221 367.621171 107.53774007 372.92175822 115.19921875 377.671875 C122.50520536 380.33011727 131.48977711 379.91250149 138.51171875 376.734375 C144.58464955 373.19849095 150.18582906 367.62770075 152.6328125 360.90234375 C154.33842206 352.52523486 154.03557935 344.38305366 149.69140625 336.921875 C145.61706244 331.41068531 139.96422626 326.13720536 133.07421875 324.734375 C121.72255874 323.50080022 113.08049732 325.10291211 105.13671875 333.609375 Z M-36.30078125 371.421875 C-39.01022792 376.94497783 -39.53896492 381.47326021 -37.92578125 387.421875 C-34.98509626 392.29238451 -31.37986078 395.91634849 -25.92578125 397.734375 C-18.79694247 398.20183984 -14.7793963 397.13400584 -9.17578125 392.421875 C-5.6559508 388.21763307 -4.68544051 384.70212343 -4.98828125 379.296875 C-5.68674115 374.48075037 -7.5006822 371.16878139 -10.92578125 367.734375 C-19.49278761 361.55816111 -29.63864014 363.88313637 -36.30078125 371.421875 Z " fill="#FF9A09" transform="translate(277.92578125,52.265625)"/>
<path d="M0 0 C2.88572847 1.76965865 5.47371564 3.72360682 8.13671875 5.80859375 C11.33616416 8.2144059 11.33616416 8.2144059 15.1484375 8.8046875 C16.6261961 8.42529885 18.09090887 7.99188256 19.5390625 7.51171875 C28.67119416 4.84756365 38.2095394 7.03801169 46.546875 11.0625 C56.36484877 16.49718533 63.34397954 24.81151099 66.5 35.71069336 C67.23607254 39.14823213 67.09236387 42.62210927 67.07421875 46.12109375 C67.07808594 46.85521484 67.08195313 47.58933594 67.0859375 48.34570312 C67.07962413 51.90328431 66.91001714 55.00795597 66.21875 58.5234375 C65.87462078 62.71782403 66.85746348 63.87153218 69.51171875 67.05859375 C76.17873188 75.65892352 81.06256899 82.5184992 80.4609375 93.7890625 C79.55619727 99.12772047 77.51064648 102.78159372 73.24902344 106.15405273 C68.07387028 109.49718014 63.19850947 111.1030657 57.19921875 112.37109375 C56.29179932 112.57597412 55.38437988 112.78085449 54.44946289 112.99194336 C47.28893348 114.58695454 40.08718106 115.9705079 32.8828125 117.35083008 C26.35107535 118.63808271 20.17746643 120.42869423 13.94921875 122.80859375 C15.07895214 129.32684383 17.14959309 135.34700895 22.22998047 139.81396484 C24.89450567 141.65276348 27.60130909 143.34640745 30.38671875 144.99609375 C46.50523921 154.78353678 46.50523921 154.78353678 48.94921875 163.80859375 C49.85614581 170.86364265 49.28798735 177.02778544 44.94921875 182.80859375 C39.86163105 188.10865611 35.36121386 191.09062548 27.88671875 191.30859375 C20.49100279 191.15246197 15.98707536 188.89348385 9.94921875 184.80859375 C8.99015625 184.16543213 8.99015625 184.16543213 8.01171875 183.50927734 C4.53364012 181.17082103 1.0791661 178.80190247 -2.3515625 176.39453125 C-2.98328369 175.95423584 -3.61500488 175.51394043 -4.26586914 175.06030273 C-5.85435013 173.94634541 -7.43008137 172.81425703 -9.00390625 171.6796875 C-12.70147037 169.40900389 -16.40927938 167.93510502 -20.48828125 166.49609375 C-21.21337891 166.21958984 -21.93847656 165.94308594 -22.68554688 165.65820312 C-29.22560008 163.32540787 -34.23388162 164.02133682 -40.73828125 166.37109375 C-51.07710913 169.55589202 -61.02326539 168.20082321 -70.6484375 163.5546875 C-80.62068362 158.03460556 -86.01184036 150.47725685 -90.1328125 140.078125 C-92.9940921 129.88709938 -91.90329265 118.14830718 -87.05078125 108.80859375 C-81.18079776 99.84253525 -72.97868454 92.63464711 -65.30273438 85.25244141 C-48.78943187 69.32889971 -42.78101024 53.01218514 -38.42578125 30.93359375 C-33.27717888 5.0976049 -33.27717888 5.0976049 -26.05078125 -1.19140625 C-16.86584999 -6.66703835 -8.96137732 -4.78475588 0 0 Z M-15.05078125 12.80859375 C-18.84741287 17.44108857 -19.39672617 23.34591491 -20.48828125 29.05859375 C-20.92590204 31.23070708 -21.36471016 33.40258153 -21.8046875 35.57421875 C-22.38872587 38.49396846 -22.97209182 41.41384911 -23.55419922 44.33398438 C-26.33004136 57.99876496 -31.11459961 69.67027589 -38.05078125 81.80859375 C-27.49078125 92.36859375 -16.93078125 102.92859375 -6.05078125 113.80859375 C0.21921875 110.83859375 6.48921875 107.86859375 12.94921875 104.80859375 C23.65171376 101.39290385 34.18552514 99.03481009 45.2512207 97.23901367 C51.04601088 96.27687804 56.43626515 94.84034528 61.94921875 92.80859375 C62.85600458 90.6483657 62.85600458 90.6483657 62.94921875 87.80859375 C61.63568912 85.28095302 60.34158223 83.16681928 58.69921875 80.87109375 C58.24321289 80.21431641 57.78720703 79.55753906 57.31738281 78.88085938 C55.88374982 76.83952257 54.4234174 74.82079586 52.94921875 72.80859375 C52.50964844 72.20772949 52.07007813 71.60686523 51.6171875 70.98779297 C35.87904851 49.74011665 16.64844238 31.2795898 -5.73828125 17.18359375 C-6.43405273 16.74523193 -7.12982422 16.30687012 -7.84667969 15.85522461 C-11.19982434 13.58626925 -11.19982434 13.58626925 -15.05078125 12.80859375 Z M32.94921875 24.80859375 C37.6468885 30.46988806 42.69645247 35.66088279 47.94921875 40.80859375 C48.27921875 39.81859375 48.60921875 38.82859375 48.94921875 37.80859375 C46.28015783 32.80410453 42.64264862 29.00389757 37.94921875 25.80859375 C35.19157524 24.86618451 35.19157524 24.86618451 32.94921875 24.80859375 Z M-51.99609375 96.55859375 C-53.07503906 97.67234375 -53.07503906 97.67234375 -54.17578125 98.80859375 C-54.90023437 99.55109375 -55.6246875 100.29359375 -56.37109375 101.05859375 C-56.92539063 101.63609375 -57.4796875 102.21359375 -58.05078125 102.80859375 C-56.7705525 105.61828842 -55.44363996 107.66251755 -53.25341797 109.83300781 C-52.69298798 110.39328674 -52.13255798 110.95356567 -51.55514526 111.53082275 C-50.65193039 112.41855377 -50.65193039 112.41855377 -49.73046875 113.32421875 C-49.11180939 113.94004822 -48.49315002 114.55587769 -47.85574341 115.19036865 C-45.88374311 117.15119711 -43.90489388 119.10494676 -41.92578125 121.05859375 C-40.58547961 122.38886174 -39.24563042 123.71958575 -37.90625 125.05078125 C-34.62631536 128.30869525 -31.34022183 131.56027908 -28.05078125 134.80859375 C-22.52039632 130.31689447 -22.52039632 130.31689447 -18.05078125 124.80859375 C-22.28027108 120.52979148 -26.5161931 116.25750396 -30.75830078 111.99121094 C-32.20151097 110.53792202 -33.64292389 109.08284605 -35.08251953 107.62597656 C-37.14800466 105.5363254 -39.21979611 103.45311467 -41.29296875 101.37109375 C-41.93885956 100.71488037 -42.58475037 100.05866699 -43.25021362 99.38256836 C-43.85068512 98.7819458 -44.45115662 98.18132324 -45.06982422 97.5625 C-45.59832977 97.02955322 -46.12683533 96.49660645 -46.6713562 95.94750977 C-49.02089193 94.00762628 -49.80526964 94.5877319 -51.99609375 96.55859375 Z M-71.05078125 116.80859375 C-74.62338705 122.31636103 -74.83816528 127.45521914 -74.05078125 133.80859375 C-72.19604378 140.50431267 -67.62230141 144.8955222 -62.05078125 148.80859375 C-56.98482002 151.23603351 -51.37047319 151.8942397 -45.984375 150.1328125 C-44.31208063 149.41997591 -42.67674668 148.62157646 -41.05078125 147.80859375 C-42.7044524 143.52972777 -45.92057699 140.66853025 -49.1171875 137.51171875 C-49.71127914 136.91808533 -50.30537079 136.3244519 -50.91746521 135.71282959 C-52.17006842 134.46324059 -53.42509432 133.21607601 -54.68237305 131.97119141 C-56.61503197 130.05685963 -58.53949838 128.13457517 -60.46289062 126.2109375 C-61.68051731 124.99822355 -62.89860043 123.78596767 -64.1171875 122.57421875 C-64.69634415 121.99617493 -65.27550079 121.4181311 -65.87220764 120.8225708 C-68.10102996 118.07526516 -68.10102996 118.07526516 -71.05078125 116.80859375 Z M-4.56298828 136.09375 C-5.42706299 136.97353516 -5.42706299 136.97353516 -6.30859375 137.87109375 C-6.93378906 138.50273437 -7.55898437 139.134375 -8.203125 139.78515625 C-9.17958984 140.78675781 -9.17958984 140.78675781 -10.17578125 141.80859375 C-11.16384766 142.81019531 -11.16384766 142.81019531 -12.171875 143.83203125 C-13.80272449 145.48651624 -15.42873975 147.14547991 -17.05078125 148.80859375 C-14.03599089 150.81845399 -12.62666286 151.69256219 -9.05078125 151.80859375 C-6.21002743 149.92365029 -6.21002743 149.92365029 -3.67578125 147.18359375 C-2.33386719 145.86488281 -2.33386719 145.86488281 -0.96484375 144.51953125 C1.24044888 141.99121104 1.24044888 141.99121104 0.80078125 139.09765625 C0.0013181 136.82338348 0.0013181 136.82338348 -1.05078125 134.80859375 C-3.12753984 134.59273237 -3.12753984 134.59273237 -4.56298828 136.09375 Z M11.94921875 153.80859375 C9.96921875 156.11859375 7.98921875 158.42859375 5.94921875 160.80859375 C8.99848546 162.99437109 12.06559766 165.15365685 15.13671875 167.30859375 C16.00103516 167.92863281 16.86535156 168.54867187 17.75585938 169.1875 C18.59697266 169.77402344 19.43808594 170.36054688 20.3046875 170.96484375 C21.45940552 171.78178711 21.45940552 171.78178711 22.63745117 172.61523438 C25.32981321 174.00506072 26.95903461 174.19632023 29.94921875 173.80859375 C32.2651552 171.95003902 32.2651552 171.95003902 32.03125 169.01171875 C30.47689656 164.41038366 27.67206694 163.00471688 23.63671875 160.55859375 C22.95931641 160.12546875 22.28191406 159.69234375 21.58398438 159.24609375 C18.42375649 157.24430717 15.30488437 155.48642656 11.94921875 153.80859375 Z " fill="#FFB323" transform="translate(256.05078125,153.19140625)"/>
</svg>
